PathFileType	4	(X/Y/Z)	C:/Users/opensim2020/Desktop/walking_exp_matlab/subject02_walking05_straight_01.trc	
DataRate	CameraRate	NumFrames	NumMarkers	Units	OrigDataRate	OrigDataStartFrame	OrigNumFrames	
100.00	100.00	6	42	mm	100.00	816	190	
Frame#	Time	LFHD			RFHD			LBHD			RBHD			C7			T10			CLAV			STRN			RBAK			LSHO			LUPA			LELB			LFRM			LWRA			LWRB			LFIN			RSHO			RUPA			RELB			RFRM			RWRA			RWRB			RFIN			LASI			RASI			LPSI			RPSI			LTHI			LKNE			LTIB			LANK			LHEE			LTOE			RTHI			RKNE			RTIB			RANK			RHEE			RTOE			*39			*40			*41			
		X1	Y1	Z1	X2	Y2	Z2	X3	Y3	Z3	X4	Y4	Z4	X5	Y5	Z5	X6	Y6	Z6	X7	Y7	Z7	X8	Y8	Z8	X9	Y9	Z9	X10	Y10	Z10	X11	Y11	Z11	X12	Y12	Z12	X13	Y13	Z13	X14	Y14	Z14	X15	Y15	Z15	X16	Y16	Z16	X17	Y17	Z17	X18	Y18	Z18	X19	Y19	Z19	X20	Y20	Z20	X21	Y21	Z21	X22	Y22	Z22	X23	Y23	Z23	X24	Y24	Z24	X25	Y25	Z25	X26	Y26	Z26	X27	Y27	Z27	X28	Y28	Z28	X29	Y29	Z29	X30	Y30	Z30	X31	Y31	Z31	X32	Y32	Z32	X33	Y33	Z33	X34	Y34	Z34	X35	Y35	Z35	X36	Y36	Z36	X37	Y37	Z37	X38	Y38	Z38	X39	Y39	Z39	X40	Y40	Z40	X41	Y41	Z41	X42	Y42	Z42	

167	1.660	-1144.25513	378.18759	1732.69421	-1001.70886	361.90637	1714.39124	-1169.22363	267.74832	1632.79907	-1030.07861	239.66571	1610.70264	-1089.26855	215.72321	1503.44592	-1075.83203	155.73259	1232.18433	-1097.79419	357.94485	1435.10083	-1076.45581	402.88446	1261.92444	-1014.99530	155.10628	1337.26245	-1269.49255	289.76724	1467.32556	-1344.68884	224.44243	1278.55566	-1355.95520	181.03539	1146.07385	-1376.34949	145.01567	1020.70776	-1357.23596	157.04214	880.63245	-1386.09399	113.38712	901.96490	-1390.93933	104.70515	835.07233	-902.81647	299.12347	1481.81091	-806.31244	299.62125	1294.45618	-782.09967	344.78162	1151.98706	-779.08514	419.62936	1054.41016	-816.87152	511.66638	962.86298	-780.71436	475.70792	936.79144	-786.85205	536.74615	899.58441	-1198.52283	408.55621	981.21631	-942.19861	381.63889	950.44452	-1141.02710	188.56548	1011.89093	-1028.32227	172.02045	1002.65417	-1271.01160	415.50546	682.62451	-1243.86035	447.56479	483.49307	-1258.31458	436.58191	289.42242	-1228.69141	477.01498	72.85223	-1183.25476	438.08069	43.60962	-1220.33752	635.04150	39.79383	-882.11902	245.38988	655.14935	-901.63232	203.31837	451.99918	-903.53278	67.90380	318.61057	-939.12750	-49.93866	165.97266	-999.48120	-100.78777	136.74254	-927.40100	50.08429	36.48788	-1070.93909	253.57619	1775.73633	-3360.21826	2845.22290	1033.68835			 
168	1.670	-1146.74585	387.68674	1734.12549	-1004.23706	371.24017	1715.99609	-1171.59985	277.19550	1634.25623	-1032.27881	249.51096	1612.20544	-1091.10974	225.43976	1504.69336	-1077.74487	166.07710	1233.10217	-1100.30371	367.54022	1436.77051	-1079.64905	413.41754	1263.68420	-1017.53607	165.32141	1337.84424	-1272.22339	299.36551	1468.92212	-1347.25586	236.35263	1278.92163	-1358.78198	194.33298	1146.13965	-1379.29211	159.51385	1020.52539	-1359.89758	172.52197	880.56128	-1389.16650	129.02196	901.68231	-1393.81726	120.71056	834.56616	-904.79657	309.45331	1482.81543	-808.70184	308.10855	1295.37158	-784.71429	351.94138	1152.08936	-782.02612	426.18805	1054.10522	-819.56104	517.37079	962.02472	-783.61298	481.40280	936.23706	-789.42310	542.35535	898.87708	-1202.36804	419.47845	983.03680	-946.74463	392.97861	951.15424	-1143.73682	199.22076	1013.93958	-1030.09424	183.82068	1003.99121	-1272.93958	427.72415	684.17767	-1244.94421	457.43198	484.52408	-1259.23950	442.43234	291.06989	-1228.59180	477.77991	72.92077	-1183.00049	438.60318	43.55990	-1220.35046	635.72473	39.20224	-883.89795	259.27658	655.49219	-899.83411	220.46243	452.42865	-902.58240	82.10931	322.90048	-939.17480	-39.04721	173.64877	-1000.68890	-89.75545	147.26408	-927.74445	51.48164	36.61135	-1073.63745	263.09802	1777.19165	-3360.14282	2845.15576	1033.94897			 
169	1.680	-1149.18335	396.98682	1735.57227	-1006.70959	380.53226	1717.80627	-1173.86414	286.42755	1635.80664	-1034.51404	258.53262	1613.99402	-1092.74744	235.04007	1506.07593	-1079.61279	176.37256	1234.07654	-1102.70215	377.04672	1438.56689	-1082.78711	423.59863	1265.48694	-1019.40063	175.63901	1338.67627	-1274.54492	308.75662	1470.81567	-1350.14343	248.33728	1279.83337	-1361.57861	207.96349	1146.48865	-1382.62305	174.69655	1020.70691	-1362.55835	188.90398	880.74451	-1392.39465	145.48035	901.42145	-1396.73413	137.73727	834.17664	-906.99652	319.92041	1483.90649	-811.38416	316.54968	1296.54541	-787.20642	359.27713	1153.02332	-784.76202	432.30164	1054.05701	-822.24121	522.62915	961.33502	-786.37103	486.43790	935.81189	-792.42700	546.88379	897.91699	-1205.91711	430.13324	985.35803	-951.59491	403.86197	952.18677	-1146.29114	209.66380	1015.80591	-1031.83740	195.50858	1005.60498	-1275.31384	439.97098	685.51038	-1246.07019	465.85263	485.30450	-1259.87036	446.95364	292.59509	-1228.30701	478.04697	73.02743	-1182.79883	438.69296	43.70618	-1219.93066	636.30664	38.78862	-885.45410	272.93134	655.72754	-898.34259	238.23300	452.89911	-901.58813	97.37840	327.15704	-939.63068	-27.07556	181.40234	-1001.99451	-77.02383	157.82132	-928.81604	53.27007	36.83150	-1076.41931	272.34094	1779.16138	-3356.83252	2845.72437	1033.76636			 
170	1.690	-1151.53333	406.25052	1736.87476	-1008.93018	389.84906	1719.36108	-1175.94824	295.50418	1637.26514	-1036.80176	267.35544	1615.96375	-1094.28467	244.40607	1507.15295	-1081.36389	186.49176	1235.10266	-1105.07336	386.68079	1440.45410	-1085.85266	434.25015	1267.41931	-1020.90271	185.84200	1339.69287	-1276.42761	317.83713	1472.99243	-1352.50818	260.37585	1280.77759	-1364.39343	221.92038	1147.11353	-1385.38879	190.48424	1020.93182	-1365.27588	206.15981	881.15332	-1395.69177	162.87167	901.17834	-1399.95239	155.79506	833.99420	-909.24188	330.09378	1485.40295	-813.98846	324.86920	1298.04700	-789.89966	366.18439	1154.17419	-787.46771	438.36172	1054.50781	-824.88739	527.60480	960.63202	-789.16772	490.91293	935.46082	-794.61969	550.97925	897.16266	-1209.11572	440.38678	987.94769	-955.94617	414.70230	953.61188	-1148.68567	220.08017	1017.37769	-1033.60925	206.60265	1007.18463	-1277.15930	451.23611	686.27661	-1247.30835	472.76776	485.67334	-1259.98572	450.15094	293.13483	-1228.08325	478.44193	72.97559	-1182.85339	438.38150	43.99656	-1219.77368	636.69025	38.29836	-887.06189	287.23740	655.65515	-897.24805	256.83853	453.11575	-900.83777	113.68695	331.20584	-939.64343	-13.23736	188.37737	-1002.87842	-63.12717	167.93970	-929.92371	55.84795	37.54619	-1078.70850	281.84589	1780.73328	-3360.23413	2845.10132	1033.76245			 
171	1.700	-1153.75623	415.30768	1738.19824	-1011.07709	398.86649	1721.12378	-1177.89172	304.44284	1638.66443	-1038.49939	276.66498	1617.50745	-1095.89124	253.58543	1507.90515	-1083.10852	196.53299	1236.18860	-1107.23291	396.24933	1442.29590	-1088.70593	444.62839	1269.33655	-1022.01215	195.87001	1340.93311	-1278.15698	326.75726	1475.25452	-1355.03479	272.38660	1282.02881	-1367.26514	236.13708	1148.04883	-1388.51025	206.81825	1021.38324	-1367.97803	224.20189	881.71906	-1399.23560	181.14528	901.33093	-1402.85779	174.88522	833.57330	-911.59113	340.02658	1487.05334	-816.61456	333.32376	1299.67920	-792.52985	372.79117	1155.50171	-790.07281	443.79532	1054.92542	-827.44653	532.04224	959.96832	-791.77258	495.00360	935.18677	-797.34326	554.72229	896.17523	-1211.97681	450.40457	990.54303	-960.21301	425.01202	955.10303	-1150.88062	230.40446	1018.67047	-1035.32434	217.06662	1008.80133	-1278.69714	461.17401	687.07794	-1248.66553	478.31537	485.54083	-1259.78308	452.07336	292.61819	-1227.91602	478.51511	72.83666	-1183.07190	438.30450	44.03547	-1219.64307	636.90424	38.09675	-888.59198	301.83478	655.52771	-896.53418	275.35660	453.39313	-900.57184	130.97330	334.74066	-939.66351	1.15549	194.80748	-1003.44824	-48.66518	177.39282	-931.18427	60.67286	39.91574	-1080.88733	291.01712	1782.34045	-3356.95776	2845.91187	1033.76917			 
172	1.710	-1155.81079	424.29596	1739.60095	-1013.06976	408.04761	1722.73682	-1179.67310	313.33792	1640.06592	-1040.22937	285.67905	1619.15125	-1097.48877	262.73282	1508.79810	-1084.86536	205.61789	1237.52661	-1109.30530	405.93518	1444.14734	-1091.30444	454.34406	1271.07141	-1023.33832	205.67184	1342.37378	-1279.62878	335.58395	1477.50549	-1357.79907	284.37863	1283.45947	-1370.10486	250.39893	1148.81116	-1391.59900	223.82904	1021.81049	-1370.76257	242.98322	882.38525	-1402.59460	200.11322	901.34113	-1406.07056	194.82130	833.39893	-913.82739	349.70645	1488.66589	-818.64709	342.17590	1301.47363	-795.13715	379.26514	1156.81836	-792.71515	449.07593	1055.35901	-829.85956	536.10052	959.22388	-794.27802	498.67322	934.91467	-799.58704	558.11737	895.19897	-1214.49585	460.14136	992.90381	-963.82965	434.91644	956.51831	-1152.96130	240.46420	1019.80505	-1037.34375	227.04149	1010.35083	-1280.01282	469.55963	687.67096	-1250.10034	482.92075	485.11893	-1259.88916	453.44110	292.14966	-1227.87512	478.59857	72.73485	-1182.96460	438.34744	44.28550	-1219.54248	637.03076	37.97606	-889.93213	316.28668	655.13226	-895.84320	293.66486	453.68564	-900.41272	148.90631	337.76471	-940.03265	15.89225	201.36740	-1004.25208	-34.36926	186.74107	-932.93622	68.40639	44.06057	-1082.90137	300.06992	1783.93420	-3357.11792	2845.77515	1033.82727			 
